<?xml version="1.0" encoding="utf-8"?>
<!-- Generator: Adobe Illustrator 18.0.0, SVG Export Plug-In . SVG Version: 6.00 Build 0)  -->
<!DOCTYPE svg PUBLIC "-//W3C//DTD SVG 1.1//EN" "http://www.w3.org/Graphics/SVG/1.1/DTD/svg11.dtd">
<svg version="1.1" id="Layer_1" xmlns="http://www.w3.org/2000/svg" xmlns:xlink="http://www.w3.org/1999/xlink" x="0px" y="0px"
	 viewBox="0 0 183 177.8" enable-background="new 0 0 183 177.8" xml:space="preserve">
<g>
	<circle fill="#4E8EF7" cx="90" cy="88.9" r="36.3"/>
	<path fill="#4E8EF7" d="M164.1,27.3c0-6.9-5.6-12.5-12.5-12.5c-3.1,0-6,1.2-8.2,3.1C128.6,6.7,110.1,0,90,0C41,0,1.1,39.9,1.1,88.9
		c0,49,39.9,88.9,88.9,88.9s88.9-39.9,88.9-88.9c0-20-6.7-38.5-17.9-53.4C163,33.3,164.1,30.4,164.1,27.3z M90,174.9
		c-47.4,0-85.9-38.6-85.9-85.9S42.6,3,90,3c19.3,0,37.1,6.4,51.4,17.1c-1.4,2-2.3,4.5-2.3,7.2c0,6.9,5.6,12.5,12.5,12.5
		c2.7,0,5.2-0.9,7.2-2.3C169.6,51.8,176,69.7,176,88.9C176,136.3,137.4,174.9,90,174.9z"/>
</g>
</svg>
