<?xml version="1.0" encoding="utf-8"?>
<!-- Generator: Adobe Illustrator 18.0.0, SVG Export Plug-In . SVG Version: 6.00 Build 0)  -->
<!DOCTYPE svg PUBLIC "-//W3C//DTD SVG 1.1//EN" "http://www.w3.org/Graphics/SVG/1.1/DTD/svg11.dtd">
<svg version="1.1" id="Layer_1" xmlns="http://www.w3.org/2000/svg" xmlns:xlink="http://www.w3.org/1999/xlink" x="0px" y="0px"
	 viewBox="0 0 960 584" enable-background="new 0 0 960 584" xml:space="preserve">
<g id="P7Bpq9_3_">
	<g>
		<path fill="#EF97CB" d="M456.5,326.7c10.1,1.7,14.5,7.3,12.3,17.3c-6.2,24.1-13.4,47.6-17.9,72.2c-1.1,6.2-1.7,11.7-0.6,18.5
			c3.4-0.6,3.9-3.4,5-5.6c20.1-38,36.4-77.8,53.7-116.9c6.7-15.1,11.7-29.7,15.1-45.3c1.1-3.9,3.4-6.2,7.3-7.3
			c10.1-2.8,21.3-4.5,31.9-2.8c9,1.7,11.7,5.6,8.4,14.5c-6.7,17.3-9,35.2-5.6,53.7c1.1,7.3,3.9,14,7.3,20.7c1.7,3.4,3.4,3.9,5.6,0.6
			c16.2-29.7,35.8-57.6,44.2-91.2c3.9-17.9,5-18.5,25.2-20.1c5,0,9.5-0.6,14.5,0c9.5,1.1,12.3,5.6,9,14.5c-6.2,17.3-9,34.7-5.6,53.1
			c2.2,11.7,8.4,21.8,13.4,31.9c1.7,3.4,3.9,2.8,6.7,1.7c17.3-7.8,35.2-12.3,54.3-13.4c41.4-1.7,77.8,8.4,101.8,45.3
			c11.7,18.5,15.7,38.6,4.5,59.3c-6.2,11.2-15.7,19-27.4,23.5c-2.8,1.1-6.2,2.2-7.8-1.1s1.7-4.5,3.4-6.2c28.5-21.3,28.5-52.6,0-74.4
			c-16.2-12.3-34.1-17.9-54.3-19.6c-21.8-2.2-43.6-1.7-64.9,6.2c-4.5,1.7-5.6,3.4-3.9,7.8c12.3,34.1-2.8,54.3-29.1,71.6
			c-8.4,5.6-17.3,9-26.9,11.7c-19.6,5.6-31.3-5-27.4-25.2c3.4-18.5,13.4-33.6,25.7-47.6c3.4-3.4,6.7-7.3,10.1-10.1
			c2.8-2.2,6.2-3.9,6.7-6.7c0-2.2-10.1-10.6-20.7-55.4c-3.4,6.2-6.7,12.3-10.6,19c-9,16.2-30.8,50.9-31.3,53.1
			c-0.6,2.2,0,4.5,1.1,6.7c2.8,6.7,4.5,14,5,21.3c2.8,27.4-10.1,45.9-33.6,58.2c-14.5,7.3-29.7,12.3-45.9,11.7
			c-6.7,0-12.9-1.7-16.2-7.8c-2.8-6.2-0.6-11.7,3.4-16.8c12.3-15.1,25.2-30.2,37.5-45.9c7.3-9,10.1-12.9,10.1-17.3
			c0-3.9-12.9-19.6-21.3-59.9c-4.5,10.6-9,21.3-13.4,31.3c-15.1,34.7-32.4,68.3-50.9,101.3c-3.9,7.3-9,14-15.7,19
			c-13.4,11.7-28,7.3-33-10.1c-2.8-10.1-3.9-20.7-2.2-31.3c0,0,0.6-5,0-5.6c-7.3,15.7-13.4,30.8-21.8,45.3
			c-6.7,11.2-15.1,19.6-29.7,17.9c-7.3-0.6-12.9-3.4-17.3-9c-11.7-15.1-16.8-32.4-19-51.5c-2.2-19.6,1.7-39.2,6.2-58.2
			c0.6-2.2,1.7-3.9,1.1-7.3c-11.7,6.7-23.5,14-35.2,20.7c-3.4,2.2-2.2,4.5-1.7,7.3c13.4,41.4,8.4,80.6-16.8,116.4
			c-18.5,26.3-44.2,42.5-76.1,48.7c-1.7,0.6-3.9,1.1-5.6,1.7c-9,0-17.3,0-26.3,0c-0.6-0.6-1.1-0.6-2.2-1.1
			c-25.7-6.2-38.6-21.8-39.2-48.1c-1.1-28.5,11.7-50.3,31.9-68.8c24.6-22.4,52.6-39.2,81.7-54.3c7.8-3.9,7.8-4.5,0.6-10.1
			c-14-10.1-28-20.1-42-30.2c-21.3-14.5-42-30.2-59.9-48.7c-17.3-17.3-30.2-38-36.9-62.1c-11.7-54.3,34.1-92.9,64.9-120.8
			c26.3-24.6,56.5-44.8,87.8-61.5c43.6-22.9,88.4-42.5,137.6-51.5c7.3-1.1,66.6-11.7,120.3,8.4c20.7,8.4,39.7,20.1,50.3,40.8
			c12.3,22.9,11.7,47,4.5,71c-14.5,46.4-44.8,80-86.2,103.5c-31.9,17.9-67.1,26.9-103.5,29.7c-22.9,1.7-45.9,1.1-67.1-7.8
			c-12.3-5-22.9-12.9-30.8-23.5c-2.8-3.4-4.5-7.3-5.6-11.7c-0.6-2.8-1.1-5.6,1.7-7.3c2.8-1.7,4.5,0.6,6.2,2.2
			c19.6,20.1,44.2,24.6,70.5,22.4c45.9-3.4,87.8-18.5,124.2-47c19.6-15.1,35.2-33,46.4-55.4c4.5-9.5,7.3-19.6,7.8-30.2
			c1.7-19-8.4-34.7-27.4-43.1c-22.9-10.1-47-11.7-71.6-9.5c-83.4,7.8-153.8,45.3-218.7,95.1c-16.8,12.9-30.8,28.5-42,47
			c-17.9,35.8-14,71,15.1,101.3c16.8,17.9,36.9,31.9,56.5,47c10.6,8.4,21.8,17.3,31.3,27.4c2.8,3.4,5.6,3.4,9.5,1.1
			c21.3-11.7,43.1-23.5,64.3-35.2c3.4-1.7,5-3.9,7.3-6.7c12.3-14.5,25.7-27.4,43.1-35.2c3.9-1.7,7.8-3.4,11.7-3.9
			c17.9-4.5,30.8,4.5,32.4,22.9c0,2.2,0,4.5,0,6.7c0,0,0,12.3-1.1,19C448.1,325,456.5,326.7,456.5,326.7z M275.2,424.6
			c0.6-5.6-0.6-12.9-2.2-20.1c-0.6-2.8-1.7-4.5-5-2.2c-25.7,15.7-51.5,31.3-71.6,54.3c-11.2,12.9-18.5,27.4-16.8,45.3
			c0.6,9,6.2,14.5,15.1,15.7c3.9,0.6,7.3,0,10.6-0.6C244.5,508,275.2,468.3,275.2,424.6z M365.3,414.5c0,5.6,0,10.6,1.1,16.2
			c1.1,5.6,0.6,13.4,7.3,14.5c6.2,1.1,8.4-6.7,10.6-11.2c10.6-20.7,17.9-42.5,26.3-63.8c5.6-14.5,10.6-29.7,13.4-45.3
			c0.6-3.4,1.7-7.3-1.1-9.5c-3.4-2.8-6.7-1.1-10.1,0.6c-4.5,1.7-7.8,4.5-11.2,7.8C378.2,349.1,367,379.9,365.3,414.5z M664.1,383.8
			c0-2.2,0-4.5,0-6.7c-0.6-3.9-1.7-5.6-5.6-2.2c-12.3,11.7-19.6,25.7-24.1,42c-0.6,1.1-1.1,2.8,0.6,3.9c1.7,1.1,3.4,0,4.5-0.6
			C655.1,414,664.1,400.6,664.1,383.8z M528.1,446.4c15.1-2.2,38.6-26.9,34.1-39.7C551.6,420.1,541,433,528.1,446.4z"/>
	</g>
</g>
</svg>
