<?xml version="1.0" encoding="utf-8"?>
<!-- Generator: Adobe Illustrator 18.0.0, SVG Export Plug-In . SVG Version: 6.00 Build 0)  -->
<!DOCTYPE svg PUBLIC "-//W3C//DTD SVG 1.1//EN" "http://www.w3.org/Graphics/SVG/1.1/DTD/svg11.dtd">
<svg version="1.1" id="Layer_1" xmlns="http://www.w3.org/2000/svg" xmlns:xlink="http://www.w3.org/1999/xlink" x="0px" y="0px"
	 viewBox="0 0 176 184" enable-background="new 0 0 176 184" xml:space="preserve">
<g>
	<g>
		<path fill="#8CC644" d="M72.8,98.3V84.6c0-0.7,0.7-2.2,1.4-2.2l12.2-7.2c0.7-0.7,2.2-0.7,2.9,0l12.2,7.2c0.7,0.7,1.4,1.4,1.4,2.2
			v13.7c0,0.7-0.7,2.2-1.4,2.2l-12.2,7.2c-0.7,0.7-2.2,0.7-2.9,0l-12.2-7.2C73.5,99.7,72.8,99,72.8,98.3z"/>
		<path fill="#353128" d="M16,47.2L83.6,9.1c2.2-1.4,5-1.4,7.9,0l68.3,38.1c2.2,1.4,3.6,3.6,3.6,6.5v18.7c0,2.9-1.4,5.8-4.3,6.5
			l-43.1,23.7c-2.2,0.7-3.6-0.7-3.6-2.2V81c0-2.2-0.7-3.6-2.9-5L90,64.5c-2.2-1.4-4.3-1.4-5.8,0L64.9,76c-1.4,0.7-2.9,2.9-2.9,5
			v21.6c0,2.2,1.4,4.3,2.9,5l67.6,39.6c1.4,0.7,1.4,3.6,0,4.3L90,175.2c-2.2,0.7-4.3,0.7-5.8,0L16,137.1c-2.2-1.4-4.3-4.3-4.3-6.5
			V53.7C11.6,50.8,13.1,48,16,47.2z"/>
	</g>
</g>
</svg>
