<?xml version="1.0" encoding="utf-8"?>
<!-- Generator: Adobe Illustrator 18.0.0, SVG Export Plug-In . SVG Version: 6.00 Build 0)  -->
<!DOCTYPE svg PUBLIC "-//W3C//DTD SVG 1.1//EN" "http://www.w3.org/Graphics/SVG/1.1/DTD/svg11.dtd">
<svg version="1.1" id="Layer_1" xmlns="http://www.w3.org/2000/svg" xmlns:xlink="http://www.w3.org/1999/xlink" x="0px" y="0px"
	 viewBox="316 144 340 274" enable-background="new 316 144 340 274" xml:space="preserve">
<g>
	<path fill="#28334C" d="M453.2,193.6c29.6-2.8,38.4-21.6,72.8-24.8c16.8-1.6,28,2,29.2,8c1.2,5.6-7.6,9.2-17.6,10
		c-14,1.2-20.4-4-21.2-8.8c-10.4,1.2-12.4,6-11.6,8.8c1.2,6,14,12,36,10c24.8-2,32.8-11.6,30.8-21.6c-2.8-12.8-22-23.2-56-20.4
		c-43.6,4-43.6,24-73.2,26.8c-12,1.2-19.2-1.6-20-6.4c-1.2-4.8,5.2-7.2,12-7.6c6.8-0.8,14.4,0.4,18.4,2.4c2.8-1.6,3.6-2.8,3.2-4.4
		c-0.8-4.4-10.4-6.4-22-5.2c-22.4,2-22,12-21.2,16.4C415.2,187.6,432,195.2,453.2,193.6z"/>
	<path fill="#28334C" d="M392.4,220.8c27.2,7.2,62.4,10.4,104.4,10.4c43.2,0,77.2-3.6,104.4-10.4c28.8-7.2,43.2-16,43.2-24.8
		c0-6-6-12.4-17.6-16.8c2.8,1.6,4.4,4.4,4.4,8c0,8.8-13.2,16-39.6,22c-24.4,5.2-56,8.8-94,8.8c-36.8,0-69.2-3.6-93.2-8.8
		c-25.6-6-38.8-13.2-38.8-22c0-3.6,1.6-7.2,7.2-10.4c-16,6-24.4,11.2-24.4,19.2C349.2,205.2,363.6,214,392.4,220.8z"/>
	<path fill="#28334C" d="M602,242.8c-27.2,6-62.4,10.4-104.4,10.4c-43.2,0-78-4.4-105.2-10.4c-24.4-6-37.6-13.2-42-20
		c2.4,16,6.4,31.6,11.6,46.4c-6,3.6-11.6,8.8-16.8,15.2c-9.6,12.4-14,26.4-13.2,40.4c0.8,14,8,25.6,18.4,34.4
		c11.2,8.8,23.6,11.2,37.6,8.8c5.2-0.8,11.2-3.6,16.8-5.2c-11.2,0-21.2-3.6-30.8-11.2c-10.4-8-17.6-18.4-19.2-31.6
		c-2.8-12.4,0-23.6,7.2-33.2c1.6-1.6,3.2-3.2,4.8-4.8c4,9.2,8,18.4,12.8,26.8c10.4,15.6,21.2,30,31.6,44.8c4.4,8.8,8,17.6,9.6,26.4
		c7.2,9.6,16.8,15.6,28.8,19.2c14.8,5.2,30.8,8,46.4,7.2h1.6c15.6,0.8,32.4-1.6,48.4-7.2c11.2-3.6,21.2-9.6,28-19.2h0.8
		c1.6-8.8,4.4-17.6,8.8-26.4c10.4-14.8,21.2-28.8,31.6-44.8c14-25.6,23.6-54.4,28.8-85.2C639.2,230.8,626,237.6,602,242.8z"/>
</g>
</svg>
