<?xml version="1.0" encoding="utf-8"?>
<!-- Generator: Adobe Illustrator 18.0.0, SVG Export Plug-In . SVG Version: 6.00 Build 0)  -->
<!DOCTYPE svg PUBLIC "-//W3C//DTD SVG 1.1//EN" "http://www.w3.org/Graphics/SVG/1.1/DTD/svg11.dtd">
<svg version="1.1" id="Capa_1" xmlns="http://www.w3.org/2000/svg" xmlns:xlink="http://www.w3.org/1999/xlink" x="0px" y="0px"
	 viewBox="0 0 96 91" enable-background="new 0 0 96 91" xml:space="preserve">
<linearGradient id="SVGID_1_" gradientUnits="userSpaceOnUse" x1="37.2421" y1="84.9452" x2="97.9673" y2="24.2201" gradientTransform="matrix(1 0 0 -1 0 92)">
	<stop  offset="0" style="stop-color:#F9A03C"/>
	<stop  offset="1" style="stop-color:#F7974E"/>
</linearGradient>
<path fill="url(#SVGID_1_)" d="M95.8,65.9c0-0.4,0.1-0.8,0.1-1.3c0-0.5-30.2-29.2-30.2-29.2H65C65,35.4,95.6,67.7,95.8,65.9z"/>
<linearGradient id="SVGID_2_" gradientUnits="userSpaceOnUse" x1="-8.0395" y1="74.7848" x2="45.7236" y2="21.0216" gradientTransform="matrix(1 0 0 -1 0 92)">
	<stop  offset="0" style="stop-color:#F9A03C"/>
	<stop  offset="1" style="stop-color:#F7974E"/>
</linearGradient>
<path fill="url(#SVGID_2_)" d="M31.3,55.9c0,0.1-0.1,0.2-0.1,0.3c0,0.1-0.1,0.2-0.1,0.3c-1,2,13.5,16.1,14.7,14.4
	c0.1-0.1,0.1-0.2,0.2-0.2c0.1-0.1,0.1-0.2,0.2-0.3C47,69,31.7,55,31.3,55.9z"/>
<linearGradient id="SVGID_3_" gradientUnits="userSpaceOnUse" x1="11.932" y1="55.4486" x2="66.39" y2="0.9907" gradientTransform="matrix(1 0 0 -1 0 92)">
	<stop  offset="0" style="stop-color:#F9A03C"/>
	<stop  offset="1" style="stop-color:#F7974E"/>
</linearGradient>
<path fill="url(#SVGID_3_)" d="M51.7,75.8c0,0.1-0.3,0.6-0.6,0.8c0,0.1,14.1,14.1,14.1,14.1h1.3C66.5,90.8,53.2,76.4,51.7,75.8z"/>
<linearGradient id="SVGID_4_" gradientUnits="userSpaceOnUse" x1="1.6532" y1="93.6532" x2="86.8993" y2="8.4072" gradientTransform="matrix(1 0 0 -1 0 92)">
	<stop  offset="0" style="stop-color:#F26D58"/>
	<stop  offset="1" style="stop-color:#F9A03C"/>
</linearGradient>
<path fill="url(#SVGID_4_)" d="M95.9,64.3C95.3,79,83.1,90.8,68.3,90.8h-2L51.5,76.2c1.2-1.7,2.4-3.5,3.4-5.4h13.5
	c4.3,0,7.7-3.5,7.7-7.7c0-4.3-3.5-7.7-7.7-7.7h-8c0.6-3.2,0.9-6.5,0.9-9.9c0-3.4-0.3-6.8-1-10.1h4.9l30.6,30.2
	C95.9,65.2,95.9,64.7,95.9,64.3z M8.1,0H0v20h8.1c14.1,0,25.5,11.4,25.5,25.5c0,3.8-0.9,7.5-2.4,10.7l14.7,14.5
	c4.8-7.2,7.6-15.9,7.6-25.2C53.5,20.4,33.1,0,8.1,0z"/>
<linearGradient id="SVGID_5_" gradientUnits="userSpaceOnUse" x1="45.244" y1="101.549" x2="108.1001" y2="38.6931" gradientTransform="matrix(1 0 0 -1 0 92)">
	<stop  offset="0" style="stop-color:#B84E51"/>
	<stop  offset="1" style="stop-color:#F68E48"/>
</linearGradient>
<path fill="url(#SVGID_5_)" d="M68.3,0H35.7c8,4.9,14.6,11.8,19,20h13.6c4.3,0,7.7,3.5,7.7,7.7c0,4.3-3.5,7.7-7.7,7.7h-3l30.6,30.2
	c0.1-0.8,0.1-1.6,0.1-2.5c0-6.7-2.4-12.9-6.4-17.7c4-4.8,6.4-11,6.4-17.7C96,12.4,83.6,0,68.3,0z"/>
<linearGradient id="SVGID_6_" gradientUnits="userSpaceOnUse" x1="6.6323" y1="27.6813" x2="49.6782" y2="-15.3647" gradientTransform="matrix(1 0 0 -1 0 92)">
	<stop  offset="0" style="stop-color:#F9A03C"/>
	<stop  offset="1" style="stop-color:#F7974E"/>
</linearGradient>
<path fill="url(#SVGID_6_)" d="M66.3,90.8H35.9C42,87,47.3,82,51.5,76.2L66.3,90.8z M45.9,70.6L31.2,56.2C27.1,64.9,18.3,71,8.1,71
	H0v20h8.1C23.8,90.9,37.7,82.8,45.9,70.6z"/>
</svg>
