<?xml version="1.0" encoding="utf-8"?>
<!-- Generator: Adobe Illustrator 18.0.0, SVG Export Plug-In . SVG Version: 6.00 Build 0)  -->
<!DOCTYPE svg PUBLIC "-//W3C//DTD SVG 1.1//EN" "http://www.w3.org/Graphics/SVG/1.1/DTD/svg11.dtd">
<svg version="1.1" id="gulpjs-logo" xmlns="http://www.w3.org/2000/svg" xmlns:xlink="http://www.w3.org/1999/xlink" x="0px"
	 y="0px" viewBox="0 0 285 633" enable-background="new 0 0 285 633" xml:space="preserve">
<g id="g3012" transform="matrix(1.25,0,0,-1.25,0,633.75)">
	<g id="g3014">
		<g>
			<defs>
				<polygon id="SVGID_1_" points="1,1 2,1 1,2 				"/>
			</defs>
			<defs>
				<polygon id="SVGID_2_" points="-1,-1 -2,-1 -1,-2 				"/>
			</defs>
			<clipPath id="SVGID_3_">
				<use xlink:href="#SVGID_1_"  overflow="visible"/>
			</clipPath>
			<clipPath id="SVGID_4_" clip-path="url(#SVGID_3_)">
				<use xlink:href="#SVGID_2_"  overflow="visible"/>
			</clipPath>
		</g>
	</g>
	<g id="g3016">
		<g id="g3022" transform="translate(176.3193,16.1807)">
			<path id="path3024" fill="#E34E48" d="M0,0c0-8.4-27.8-15.2-62-15.2c-34.2,0-62,6.8-62,15.2l-5.3,78.5l-15,24.9
				c0,0,30-12.2,81.1-12.2s81.5,12.5,81.5,12.5L4.9,80.8L0,0z"/>
		</g>
		<g id="g3026" transform="translate(1.4824,369.9614)">
			<path id="path3028" fill="#E34E48" d="M0,0l24.9-240.1c0,0,21.5-17,86.1-17s86.9,16.7,86.9,16.7L224.7,0.3
				c0,0-15.4-12.7-113.1-12.7C13.8-12.5,0,0,0,0"/>
		</g>
		<g id="g3030" transform="translate(228.333,379)">
			<path id="path3032" fill="#E34E48" d="M0,0c0-8.8-51-16-113.8-16c-62.9,0-113.8,7.2-113.8,16s51,16,113.8,16C-51,16,0,8.8,0,0"/>
		</g>
		<g id="g3034" transform="translate(155.0967,371.0713)">
			<path id="path3036" fill="#FFFFFF" d="M0,0c1.9,0.3,4.9,0.6,4.9,2.9c0,1.4-1.1,2.2-2.5,2.6L1.4,4c0.8-0.2,1.3-0.4,1.3-0.7
				C2.7,2.4-3.4,2-8.5,1.9c-5.1-0.1-11.7,0.5-11.7,1.4c0,0.2,0.2,0.4,0.7,0.5l-1,1.5c-1-0.4-1.9-1.1-1.9-2.2c0-0.6,0.3-1.5,0.8-1.9
				c1.8-1.7,6.4-1.7,12.9-1.7C-2.2-0.5,0,0,0,0"/>
		</g>
		<g id="g3038" transform="translate(227.4678,493.0547)">
			<path id="path3040" fill="#E34E48" d="M0,0c-1.4-1.6-5.9-0.1-9.9,3.4c-4.1,3.5-6.2,7.7-4.8,9.4c1.4,1.6,5.9,0.1,9.9-3.4
				C-0.7,5.8,1.4,1.6,0,0"/>
		</g>
		<g id="g3042" transform="translate(212.7188,505.8276)">
			<path id="path3044" fill="#E34E48" d="M0,0l-59.7-63.2l-11.9-48.3l19.8-0.9L-41.5-72l56.4,59.3L0,0z"/>
		</g>
		<g id="g3046" transform="translate(18.2344,207.7656)">
			<path id="path3048" fill="#FFFFFF" d="M0,0c15.6-7.7,27.8,7.7,34.4,13.8c0.4-4.1-11-27.8-4-30c7-2.2,10,17.1,15.6,35.4
				c5,16.3,12.5,34.8,5.6,36.6s-9-16-12.1-22c-4.5-8.6-30.8-37.4-34-16c-2.5,16.8,16.3,50.5,25,59c4.4,4.3,11.1,8.2,16,7
				c6.7-1.7,7.3-13.3,13-13c13.4,0.8-2.2,23.4-14,24C19.4,96.2,2.9,56-3.9,36.5C-4.4,30.5,0,0,0,0"/>
		</g>
		<g id="g3050" transform="translate(209.667,220)">
			<path id="path3052" fill="#FFFFFF" d="M0,0c-7.9-7.9-34.4-22.5-36.1-6.4C-37.4,6.5-7.9,25.1-15.5,25.7
				c-16.3-0.9-24.4-19.1-32.6-38.1c-3-7-13.3-36.7-20-33c-6.7,3.7,8.7,28.1,13.1,42.6c-5-3.7-23.3-17.9-28.1-4.6
				c-7.6-6.5-23.8-9.9-22,7c-4-7.2-13.1-17.2-24-13c-14.3,5.5,8.3,51,13.9,48.7c5.6-2.3-1.1-12.7-2.9-16.7c-3.9-8.9-8.4-20-5.4-22.3
				c5.1-3.9,19.1,14.8,19.4,15.2c2.6,3.5,10.1,26.1,16.1,23.5s-15-32.5-7.1-38.4c1.6-1.2,8.1,0.7,12,5c2.5,2.8,1.7,8.9,10.2,29.1
				C-64.4,51-56.8,76.2-51,74.3s1-14.9-1.1-19.7C-61.9,31.9-78.8-5.5-70.8-2.7s12.2,3,20,12.2s7.5,24.3,12.7,23.9
				c5.2-0.3,4.3-5.2,3.1-8.9c5.1,5.9,24.4,18.3,29,6C-0.6,16.1-33.6-4.9-25.3-3.8s21.7,9.7,27,17.3C1.7,13.5,0,0,0,0"/>
		</g>
	</g>
</g>
</svg>
