<?xml version="1.0" encoding="utf-8"?>
<!-- Generator: Adobe Illustrator 18.0.0, SVG Export Plug-In . SVG Version: 6.00 Build 0)  -->
<!DOCTYPE svg PUBLIC "-//W3C//DTD SVG 1.1//EN" "http://www.w3.org/Graphics/SVG/1.1/DTD/svg11.dtd">
<svg version="1.1" id="Capa_1" xmlns="http://www.w3.org/2000/svg" xmlns:xlink="http://www.w3.org/1999/xlink" x="0px" y="0px"
	 viewBox="0 0 717.8 216.8" enable-background="new 0 0 717.8 216.8" xml:space="preserve">
<g>
	<path id="svg_2" fill="#3F250C" stroke="#010101" d="M618,50h-1v1h-1l0,0v1l0,0l0,0h-1l0,0v1h-1l0,0v1h-2h-1v-1l1-1v-1v-1h1l0,0v-1
		h1l0,0v-1l0,0l0,0l1-1l1-1l0,0l0,0v-1c0,0,1-0.7,3-2c1.3-2,4.7-4.3,10-7s11-4,17-4c6.7,0,12,1,16,3c4.7,2,9.7,5,15,9
		c4.7,4,9.3,9,14,15s8,12.3,10,19c2,7.3,3,14.7,3,22c0,8-1,15.3-3,22c-2,7.3-5.7,14.7-11,22c-4,7.3-8.7,13.3-14,18s-12.3,9.3-21,14
		c-8.7,5.3-18.7,9.3-30,12c-11.3,4-23.7,6.7-37,8c-12.7,1.3-27.3,1.3-44,0c-17.3,0-35.3-2-54-6s-36-8.7-52-14s-30-11.3-42-18
		c-11.3-6.7-20-12.7-26-18c-6.7-5.3-10.7-8.3-12-9s-3.3,0-6,2c-2,2-7.3,6.3-16,13s-19,12.7-31,18s-26.3,10.7-43,16
		c-16,5.3-34,9.7-54,13s-36.7,5.3-50,6c-12.7,0.7-22,0.3-28-1c-6,0-15.3-1.7-28-5c-13.3-3.3-24.7-7-34-11c-8.7-4-16-8-22-12
		c-6-5.3-11.3-11-16-17c-5.3-6.7-9.3-14-12-22c-2.7-8-4.3-16.3-5-25c-0.7-8-0.3-14.7,1-20c1.3-4.7,3.3-10.3,6-17c4-6.7,7-11,9-13
		c2.7-2.7,4-4.3,4-5s0.7-1.3,2-2s5-2.7,11-6s12.7-5,20-5c8,0,14.7,1,20,3l8,3v1l0,0h1v1l0,0h1l0,0l0,0l1,1l1,1l0,0l0,0h1l0,0v1h1v1
		v1h-2l-3-1h-1h-1v-1h-1l0,0v-1h-4c-2-1.3-5.7-1.7-11-1s-10,2.3-14,5c-3.3,3.3-6.3,7.3-9,12s-4,11.3-4,20c0,9.3,1.3,15.7,4,19
		c2,3.3,4.7,6,8,8s8,3,14,3c6.7,0,14.7-2,24-6c10-4,22.7-10.3,38-19c16-8.7,31.7-17.7,47-27c16-9.3,29.7-16.7,41-22
		c12-5.3,22-8.7,30-10c8.7-2.7,18.3-3.7,29-3s21,2.3,31,5c10,4,18.7,8.3,26,13c8,4.7,12.3,7.3,13,8s4.7-1.7,12-7s16-9.3,26-12
		c10-4,17.3-6,22-6c4.7-1.3,13-1.7,25-1s22.7,2,32,4c8.7,2,19.3,6.3,32,13s31,18,55,34s40.3,25.3,49,28c8,4,15.7,6,23,6
		s13.7-1.3,19-4s9.3-5.3,12-8c2.7-3.3,4-9,4-17s-1.3-14.3-4-19s-5.7-8.7-9-12c-3.3-2.7-6.3-4.7-9-6c-3.3-1.3-7.3-2-12-2
		c-4,0-7.3,1-10,3C620,49,618.7,50,618,50z"/>
</g>
</svg>
