<?xml version="1.0" encoding="utf-8"?>
<!-- Generator: Adobe Illustrator 18.0.0, SVG Export Plug-In . SVG Version: 6.00 Build 0)  -->
<!DOCTYPE svg PUBLIC "-//W3C//DTD SVG 1.1//EN" "http://www.w3.org/Graphics/SVG/1.1/DTD/svg11.dtd">
<svg version="1.1"
	 id="svg2" xmlns:inkscape="http://www.inkscape.org/namespaces/inkscape" xmlns:rdf="http://www.w3.org/1999/02/22-rdf-syntax-ns#" xmlns:dc="http://purl.org/dc/elements/1.1/" xmlns:cc="http://creativecommons.org/ns#" xmlns:svg="http://www.w3.org/2000/svg"
	 xmlns="http://www.w3.org/2000/svg" xmlns:xlink="http://www.w3.org/1999/xlink" x="0px" y="0px" viewBox="251.1 51.1 456 454.5"
	 enable-background="new 251.1 51.1 456 454.5" xml:space="preserve">
<g id="g16">
	<path id="path36" inkscape:connector-curvature="0" fill="#8A4182" d="M464.7,242.4h33.9l8.4-11.6V140h-50.7v90.8L464.7,242.4"/>
	<path id="path38" inkscape:connector-curvature="0" fill="#8A4182" d="M442.8,282.9l10.5-32.2l-8.4-11.6l-86.3-28l-15.7,48.2
		l86.4,28L442.8,282.9"/>
	<path id="path40" inkscape:connector-curvature="0" fill="#8A4182" d="M474.5,316.2l-27.4-19.9l-13.6,4.4l-53.3,73.4l41,29.8
		l53.3-73.4V316.2"/>
	<path id="path42" inkscape:connector-curvature="0" fill="#8A4182" d="M516,296.2l-27.4,19.9v14.3l53.3,73.4l41-29.8l-53.3-73.4
		L516,296.2"/>
	<path id="path44" inkscape:connector-curvature="0" fill="#8A4182" d="M509.9,250.7l10.5,32.2l13.6,4.4l86.3-28L604.7,211l-86.3,28
		L509.9,250.7"/>
	<path id="path46" inkscape:connector-curvature="0" fill="#8A4182" d="M481.6,61.3C361,61.3,262.9,159.4,262.9,280
		S361,498.8,481.6,498.8S700.3,400.7,700.3,280C700.3,159.4,602.2,61.3,481.6,61.3L481.6,61.3z M481.6,105.5
		c96.3,0,174.4,78.1,174.4,174.4s-78.1,174.5-174.4,174.5c-96.4,0-174.5-78.1-174.5-174.5C307.1,183.6,385.2,105.5,481.6,105.5"/>
	<path id="path48" inkscape:connector-curvature="0" fill="#8A4182" d="M614.1,328.6l-65.6-21.3l4.3-13.4l65.6,21.3L614.1,328.6"/>
	<path id="path50" inkscape:connector-curvature="0" fill="#8A4182" d="M530.4,223.2L519,215l40.5-55.8l11.4,8.3L530.4,223.2"/>
	<path id="path52" inkscape:connector-curvature="0" fill="#8A4182" d="M433.5,222.7L393,166.9l11.4-8.3l40.5,55.8L433.5,222.7"/>
	<path id="path54" inkscape:connector-curvature="0" fill="#8A4182" d="M348.8,327.7l-4.3-13.4l65.6-21.3l4.3,13.4L348.8,327.7"/>
	<path id="path56" inkscape:connector-curvature="0" fill="#8A4182" d="M474.1,419.4h14v-69h-14V419.4z"/>
</g>
</svg>
