<?xml version="1.0" encoding="utf-8"?>
<!-- Generator: Adobe Illustrator 18.0.0, SVG Export Plug-In . SVG Version: 6.00 Build 0)  -->
<!DOCTYPE svg PUBLIC "-//W3C//DTD SVG 1.1//EN" "http://www.w3.org/Graphics/SVG/1.1/DTD/svg11.dtd">
<svg version="1.1" id="Capa_1" xmlns="http://www.w3.org/2000/svg" xmlns:xlink="http://www.w3.org/1999/xlink" x="0px" y="0px"
	 viewBox="0 0 99 105" enable-background="new 0 0 99 105" xml:space="preserve">
<path fill="#0868AC" d="M6,30.5c-8.3,12-7.3,27.6-0.9,40.3c0.2,0.3,0.3,0.6,0.5,0.9c0.1,0.2,0.2,0.4,0.3,0.6
	c0.1,0.1,0.1,0.2,0.2,0.3c0.1,0.2,0.2,0.4,0.3,0.6c0.2,0.3,0.4,0.7,0.6,1c0.1,0.2,0.2,0.4,0.3,0.6c0.2,0.4,0.5,0.7,0.7,1.1
	c0.1,0.2,0.2,0.3,0.3,0.5c0.3,0.5,0.7,1,1,1.5c0,0,0,0,0,0c0.1,0.1,0.1,0.2,0.2,0.2c0.3,0.4,0.6,0.8,0.9,1.2
	c0.1,0.1,0.2,0.3,0.4,0.4c0.3,0.4,0.6,0.7,0.9,1.1c0.1,0.1,0.2,0.3,0.3,0.4c0.4,0.5,0.8,0.9,1.2,1.4c0,0,0,0,0,0c0,0,0,0,0,0.1
	c0.4,0.4,0.8,0.9,1.2,1.3c0.1,0.1,0.3,0.3,0.4,0.4c0.3,0.3,0.6,0.6,1,1c0.1,0.1,0.3,0.3,0.4,0.4c0.4,0.4,0.9,0.8,1.3,1.2
	c0,0,0,0,0,0c0.1,0.1,0.2,0.1,0.2,0.2c0.4,0.3,0.8,0.7,1.2,1c0.2,0.1,0.3,0.3,0.5,0.4c0.3,0.3,0.7,0.5,1,0.8
	c0.2,0.1,0.4,0.3,0.5,0.4c0.4,0.3,0.8,0.5,1.1,0.8c0.1,0.1,0.3,0.2,0.4,0.3c0,0,0.1,0.1,0.1,0.1c0.4,0.2,0.7,0.5,1.1,0.7
	c0.2,0.1,0.3,0.2,0.5,0.3c0.6,0.4,1.1,0.7,1.7,1.1c0.2,0.1,0.3,0.2,0.5,0.3c0.4,0.2,0.9,0.5,1.3,0.7c0.2,0.1,0.5,0.2,0.7,0.4
	c0.3,0.2,0.6,0.3,0.9,0.5c0.1,0,0.1,0.1,0.2,0.1c0.1,0.1,0.3,0.1,0.4,0.2c0.5,0.2,1,0.5,1.5,0.7c0.1,0,0.2,0.1,0.3,0.1
	c0.6,0.2,1.1,0.5,1.7,0.7c0.1,0.1,0.3,0.1,0.4,0.2c0.5,0.2,1.1,0.4,1.6,0.6c0.1,0,0.1,0,0.2,0.1c0.6,0.2,1.2,0.4,1.8,0.6
	c0.1,0,0.3,0.1,0.4,0.1c0.6,0.2,1.2,0.4,1.9,0.5c40.3,7.4,52-24.2,52-24.2C82,87.4,64.6,90.8,48,87c-0.6-0.1-1.2-0.3-1.8-0.5
	c-0.2,0-0.3-0.1-0.5-0.1c-0.6-0.2-1.2-0.4-1.8-0.6c-0.1,0-0.2-0.1-0.2-0.1c-0.5-0.2-1-0.4-1.6-0.6C42,85,41.9,85,41.7,84.9
	c-0.6-0.2-1.1-0.5-1.7-0.7c-0.1,0-0.2-0.1-0.3-0.1c-0.5-0.2-1-0.4-1.4-0.7c-0.1-0.1-0.3-0.1-0.4-0.2c-0.4-0.2-0.7-0.4-1.1-0.6
	c-0.2-0.1-0.5-0.3-0.7-0.4c-0.4-0.2-0.9-0.5-1.3-0.7c-0.1-0.1-0.3-0.2-0.4-0.2c-0.6-0.3-1.2-0.7-1.7-1.1c-0.2-0.1-0.3-0.2-0.5-0.3
	c-0.4-0.3-0.8-0.5-1.2-0.8c-0.1-0.1-0.3-0.2-0.4-0.3c-0.4-0.3-0.8-0.6-1.2-0.8c-0.2-0.1-0.3-0.3-0.5-0.4c-0.4-0.3-0.7-0.5-1-0.8
	c-0.2-0.1-0.3-0.2-0.5-0.4c-0.4-0.4-0.9-0.7-1.3-1.1c0,0-0.1-0.1-0.1-0.1c-0.5-0.4-0.9-0.8-1.4-1.2c-0.1-0.1-0.3-0.2-0.4-0.4
	c-0.3-0.3-0.7-0.6-1-1c-0.1-0.1-0.3-0.3-0.4-0.4c-0.4-0.4-0.8-0.8-1.2-1.3c0,0,0,0-0.1-0.1c-0.4-0.5-0.8-0.9-1.2-1.4
	c-0.1-0.1-0.2-0.3-0.3-0.4c-0.3-0.4-0.6-0.7-0.9-1.1c-0.1-0.1-0.2-0.3-0.3-0.4c-0.3-0.4-0.7-0.9-1-1.4c-9.2-12.5-12.5-29.8-5.1-44"
	/>
<path fill="#0868AC" d="M31.9,20.4c-6,8.7-5.7,20.3-1,29.5c0.8,1.5,1.7,3,2.7,4.5c0.9,1.3,1.9,2.8,3.1,3.9c0.4,0.5,0.9,0.9,1.4,1.4
	c0.1,0.1,0.2,0.2,0.4,0.4c0.5,0.4,0.9,0.9,1.4,1.3c0,0,0,0,0.1,0c0,0,0,0,0,0c0.5,0.5,1.1,0.9,1.6,1.3c0.1,0.1,0.2,0.2,0.4,0.3
	c0.6,0.4,1.1,0.8,1.7,1.2c0,0,0,0,0,0c0.3,0.2,0.5,0.3,0.8,0.5c0.1,0.1,0.2,0.2,0.4,0.2c0.4,0.3,0.8,0.5,1.3,0.8
	c0.1,0,0.1,0.1,0.2,0.1c0.4,0.2,0.7,0.4,1.1,0.6c0.1,0.1,0.3,0.1,0.4,0.2c0.3,0.1,0.5,0.3,0.8,0.4c0,0,0.1,0,0.1,0.1
	c0.5,0.3,1.1,0.5,1.6,0.8c0.1,0.1,0.2,0.1,0.4,0.1c0.4,0.2,0.9,0.4,1.3,0.5c0.2,0.1,0.4,0.1,0.6,0.2c0.4,0.1,0.8,0.3,1.2,0.4
	c0.2,0.1,0.4,0.1,0.5,0.2c0.6,0.2,1.2,0.4,1.8,0.5C87,75,94.1,51,94.1,51c-6.5,9.3-19,13.8-32.4,10.3c-0.6-0.2-1.2-0.3-1.8-0.5
	c-0.2-0.1-0.4-0.1-0.5-0.2c-0.4-0.1-0.8-0.3-1.2-0.4c-0.2-0.1-0.4-0.1-0.6-0.2c-0.4-0.2-0.9-0.3-1.3-0.5c-0.1-0.1-0.2-0.1-0.4-0.2
	c-0.5-0.2-1.1-0.5-1.6-0.8c-0.3-0.1-0.5-0.3-0.8-0.4c-0.2-0.1-0.3-0.2-0.5-0.2c-0.3-0.2-0.7-0.4-1-0.6c-0.1,0-0.2-0.1-0.2-0.1
	c-0.4-0.2-0.8-0.5-1.2-0.8c-0.1-0.1-0.2-0.2-0.4-0.3c-0.3-0.2-0.5-0.4-0.8-0.5c-0.6-0.4-1.1-0.8-1.7-1.2c-0.1-0.1-0.3-0.2-0.4-0.3
	C41.4,49.5,36.8,43.2,34.6,36c-2.3-7.4-1.8-15.8,2.2-22.6"/>
<path fill="#0868AC" d="M53.6,12.9c-3.6,5.2-3.9,11.7-1.4,17.5c2.6,6.1,7.9,10.9,14.1,13.2c0.3,0.1,0.5,0.2,0.8,0.3
	c0.1,0,0.2,0.1,0.3,0.1c0.4,0.1,0.7,0.2,1.1,0.3c17.2,3.3,21.8-8.8,23.1-10.6c-4.1,5.9-10.9,7.3-19.4,5.2c-0.7-0.2-1.4-0.4-2-0.6
	c-0.8-0.3-1.6-0.6-2.4-1c-1.5-0.7-2.9-1.6-4.2-2.6C56,29,51.4,18.1,56.3,9.2"/>
</svg>
