<?xml version="1.0" encoding="utf-8"?>
<!-- Generator: Adobe Illustrator 18.0.0, SVG Export Plug-In . SVG Version: 6.00 Build 0)  -->
<!DOCTYPE svg PUBLIC "-//W3C//DTD SVG 1.1//EN" "http://www.w3.org/Graphics/SVG/1.1/DTD/svg11.dtd">
<svg version="1.1" id="Capa_1" xmlns="http://www.w3.org/2000/svg" xmlns:xlink="http://www.w3.org/1999/xlink" x="0px" y="0px"
	 viewBox="204 0 538 560" enable-background="new 204 0 538 560" xml:space="preserve">
<g id="Capa_2">
	<g>
		<path fill="#3492FF" d="M731.9,516.7c-172,0-343.8,0-515.8,0c0-19,0-38,0-57c171.9,0,343.8,0,515.8,0
			C731.9,478.7,731.9,497.7,731.9,516.7z"/>
	</g>
</g>
<g id="Capa_3">
	<g>
		<path d="M475.2,274c0.2-20,3-39.6,9.9-58.4c6.2-16.7,15.1-31.7,27.9-44.2c13.3-12.9,28.8-22,46.4-27.7c8.5-2.7,17.3-4.3,26.2-5.2
			c9.7-0.9,19.4-1.2,29-0.4c22,1.9,42.5,8.2,60.7,20.9c17.5,12.2,30.3,28.2,39.1,47.6c6,13.1,9.8,26.9,11.7,41.2
			c1.8,13.7,2.3,27.5,1.3,41.3c-1.4,18.3-5.4,36-13.1,52.7C704.2,363.7,689,381,668,393.2c-11.4,6.6-23.5,11.2-36.4,13.6
			c-11.9,2.2-24,3.1-36.2,2.7c-11.4-0.4-22.7-2.1-33.7-5.2c-15.1-4.3-28.9-11.3-41.1-21.2c-17.8-14.4-29.4-33-36.8-54.4
			c-3.9-11.4-6.4-23.1-7.4-35.1C475.9,287,475.6,280.5,475.2,274z M682.6,273.4c-0.1-8.1-0.5-16.7-2.1-25.3
			c-2.3-12.2-6.2-23.9-12.6-34.6c-6.1-10.3-14.1-19.1-24.2-25.7c-10.5-6.9-22.1-10.7-34.6-11.9c-10.8-1-21.4-0.2-31.7,3.3
			c-17.9,6-31.8,17.2-41.4,33.3c-10.1,16.8-14.5,35.3-15.3,54.7c-0.3,7.8,0,15.6,0.9,23.4c1,9.6,2.9,18.9,6.3,27.9
			c5.5,14.7,13.7,27.5,26.2,37.3c10,7.9,21.4,12.8,33.9,15.1c9.9,1.8,19.9,1.6,29.8-0.5c15.1-3.2,28.1-10.4,38.9-21.3
			c9.8-9.9,16-21.8,20.2-34.8C681.2,301.2,682.6,287.7,682.6,273.4z"/>
		<path d="M264.7,363.7c63.5,0,126.7,0,190.1,0c0,13.5,0,26.9,0,40.4c-79.4,0-158.7,0-238.2,0c0-119.9,0-239.7,0-359.6
			c16.1,0,32,0,48.1,0C264.7,150.9,264.7,257.2,264.7,363.7z"/>
	</g>
</g>
</svg>
