<?xml version="1.0" encoding="utf-8"?>
<!-- Generator: Adobe Illustrator 18.0.0, SVG Export Plug-In . SVG Version: 6.00 Build 0)  -->
<!DOCTYPE svg PUBLIC "-//W3C//DTD SVG 1.1//EN" "http://www.w3.org/Graphics/SVG/1.1/DTD/svg11.dtd">
<svg version="1.1" id="Layer_2" xmlns="http://www.w3.org/2000/svg" xmlns:xlink="http://www.w3.org/1999/xlink" x="0px" y="0px"
	 viewBox="0 0 600 600" enable-background="new 0 0 600 600" xml:space="preserve">
<circle fill="#00D8FF" cx="299.5" cy="299.6" r="50.2"/>
<path fill="none" stroke="#00D8FF" stroke-width="24" stroke-miterlimit="10" d="M299.5,197.6c67.4,0,129.9,9.7,177.1,25.9
	c56.8,19.6,91.8,49.2,91.8,76.1c0,28-37,59.5-98.1,79.7c-46.2,15.3-106.9,23.3-170.8,23.3c-65.6,0-127.6-7.5-174.3-23.4
	c-59-20.2-94.6-52.1-94.6-79.6C30.6,273,64,243.6,120,224C167.4,207.5,231.5,197.6,299.5,197.6z"/>
<path fill="none" stroke="#00D8FF" stroke-width="24" stroke-miterlimit="10" d="M210.7,248.9c33.6-58.3,73.3-107.7,110.9-140.5
	C367,69,410.2,53.5,433.4,66.9c24.2,14,33,61.8,20.1,124.8c-9.8,47.6-33.2,104.2-65.2,159.6c-32.7,56.8-70.2,106.8-107.4,139.3
	c-47,41.1-92.4,55.9-116.2,42.2c-23.1-13.3-31.9-56.9-20.8-115.2C153.3,368.3,176.8,307.8,210.7,248.9z"/>
<path fill="none" stroke="#00D8FF" stroke-width="24" stroke-miterlimit="10" d="M210.8,351.5c-33.7-58.3-56.7-117.3-66.3-166.3
	c-11.5-59-3.4-104.1,19.9-117.6c24.2-14,70.1,2.2,118.1,44.9c36.4,32.3,73.7,80.8,105.7,136.2c32.8,56.7,57.5,114.2,67,162.6
	c12.1,61.2,2.3,108-21.5,121.7c-23.1,13.3-65.2-0.8-110.2-39.5C285.6,460.9,244.9,410.3,210.8,351.5z"/>
</svg>
