<?xml version="1.0" encoding="utf-8"?>
<!-- Generator: Adobe Illustrator 18.0.0, SVG Export Plug-In . SVG Version: 6.00 Build 0)  -->
<!DOCTYPE svg PUBLIC "-//W3C//DTD SVG 1.1//EN" "http://www.w3.org/Graphics/SVG/1.1/DTD/svg11.dtd">
<svg version="1.1" id="Capa_1" xmlns="http://www.w3.org/2000/svg" xmlns:xlink="http://www.w3.org/1999/xlink" x="0px" y="0px"
	 viewBox="43 58 232 282.3" enable-background="new 43 58 232 282.3" xml:space="preserve">
<g>
	<circle fill="#43A5EB" cx="160.1" cy="175.7" r="109.5"/>
	<circle fill="#F34B41" cx="160.5" cy="176" r="73"/>
	<circle fill="#FEFB1F" cx="160.5" cy="176" r="37"/>
</g>
<g display="none">
	<path display="inline" fill="none" d="M282.9,226.6c-27.7,67.9-105.2,100.6-173.2,72.9C41.8,271.8,9.2,194.3,36.9,126.4
		C64.6,58.4,142.1,25.8,210,53.5C278,81.1,310.6,158.7,282.9,226.6L282.9,226.6z"/>
	<path display="inline" fill="#4C4C4C" d="M20.4,99.7l4.1-6.6c1.6-2.6,3.4-4.2,5.3-4.6c1.9-0.4,3.8-0.1,5.7,1.1
		c0.6,0.4,1.2,0.9,1.7,1.5c0.5,0.6,0.9,1.3,1.2,2c0.3,0.7,0.5,1.5,0.5,2.3c0.1,0.8,0,1.6-0.3,2.4l13.1,1l-1.7,2.8l-12.9-1.1
		l-2.7,4.3l9.8,6.1l-1.6,2.6C42.7,113.4,20.4,99.7,20.4,99.7z M24.3,98.6l7.9,4.9l2.7-4.3c1-1.6,1.3-3,1.1-4.1
		c-0.3-1.1-1-2.1-2.1-2.8c-0.6-0.4-1.2-0.6-1.8-0.7c-0.6-0.1-1.2-0.1-1.7,0s-1.1,0.4-1.7,0.8s-1.1,1.1-1.6,1.9
		C27,94.2,24.3,98.6,24.3,98.6z M44,67.1L55.6,56l1.8,1.9l-9.6,9.2l6,6.2l7.9-7.6l1.9,2l-7.9,7.6l6.7,7l9.5-9.1l1.8,1.9l-11.5,11
		L44,67.1z M96.1,44.9c1.9,3.4,2.8,6.3,2.8,8.9c0,2.6-1,4.8-3,6.5c0.5,0.8,1.1,1.3,1.7,1.6c0.7,0.3,1.5,0.2,2.5-0.4
		c0.1-0.1,0.3-0.2,0.6-0.4c0.3-0.2,0.5-0.4,0.8-0.6c0.3-0.2,0.6-0.4,0.9-0.6s0.5-0.3,0.6-0.4l1.3,2.5l-1.4,0.8
		c-1.2,0.7-2.2,1.2-3.1,1.5s-1.7,0.4-2.5,0.3s-1.4-0.5-2-1c-0.6-0.5-1.1-1.3-1.7-2.2c-1,0.4-2.1,0.6-3.2,0.5s-2.3-0.3-3.6-0.9
		c-1.2-0.6-2.4-1.4-3.6-2.6c-1.2-1.2-2.3-2.7-3.3-4.5c-1.3-2.3-2.1-4.3-2.4-6.2c-0.3-1.8-0.3-3.4,0-4.7c0.3-1.3,0.8-2.5,1.6-3.4
		c0.7-0.9,1.5-1.6,2.4-2.1c1.1-0.6,2.2-0.9,3.4-1c1.2-0.1,2.5,0.1,3.8,0.6c1.3,0.5,2.6,1.4,3.8,2.6C93.7,41.2,94.9,42.8,96.1,44.9z
		 M80.1,44.2c-0.5,2.2,0.2,4.8,2.1,8.1c0.8,1.5,1.7,2.7,2.6,3.8c0.9,1.1,1.9,1.9,2.9,2.4c1,0.6,2,0.9,3,1c1,0.1,2-0.1,2.8-0.6
		c0.6-0.3,1.2-0.9,1.6-1.5c0.5-0.7,0.8-1.5,0.9-2.5c0.1-1,0.1-2.1-0.2-3.4c-0.3-1.3-0.9-2.7-1.8-4.3c-1.2-2.1-2.3-3.6-3.3-4.7
		c-1.1-1.1-2.1-1.8-3.1-2.2c-1-0.4-1.9-0.6-2.7-0.5c-0.8,0.1-1.5,0.3-2.1,0.6c-0.7,0.4-1.3,1-1.7,1.7S80.2,43.3,80.1,44.2z
		 M110.4,25.1l3.2-0.9l0.1,0.1c0,0.1,0,0.3-0.1,0.5s-0.1,0.5-0.1,0.8l4.1,15.3c0.4,1.4,0.8,2.5,1.3,3.2c0.5,0.7,1,1.2,1.7,1.6
		c0.6,0.4,1.3,0.6,2,0.7c0.7,0.1,1.5,0,2.3-0.1c0.7-0.3,1.4-0.6,2-1c0.6-0.4,1.1-0.9,1.4-1.6c0.4-0.7,0.6-1.4,0.6-2.3
		s-0.1-2-0.5-3.5L124,21.4l2.7-0.7l4.4,16.4c0.4,1.7,0.6,3.1,0.6,4.3c-0.1,1.2-0.4,2.3-0.9,3.3c-0.6,1-1.3,1.8-2.2,2.4
		c-0.9,0.6-2,1.1-3.2,1.5c-1.2,0.3-2.4,0.4-3.5,0.3c-1.1-0.1-2.1-0.4-3-1c-0.9-0.5-1.7-1.3-2.4-2.2c-0.7-0.9-1.3-2.3-1.7-4.1
		L110.4,25.1z M151.7,17.5l13.1-0.1l0,2.4l-5.2,0l0.2,21.4l5.4,0l0,2.4l-13.6,0.1l0-2.4l5.2,0l-0.2-21.4l-4.9,0L151.7,17.5
		L151.7,17.5z M189.4,19.9l7.5,1.8c3,0.7,5,1.9,6,3.6c1,1.7,1.2,3.6,0.7,5.8c-0.2,0.7-0.5,1.4-0.9,2.1c-0.4,0.7-0.9,1.3-1.5,1.8
		s-1.3,0.9-2,1.2c-0.8,0.3-1.5,0.5-2.4,0.5l3.1,12.8l-3.2-0.8l-2.9-12.6l-4.9-1.2l-2.7,11.2l-2.9-0.7L189.4,19.9L189.4,19.9z
		 M191.6,23.4l-2.2,9l4.9,1.2c1.8,0.4,3.2,0.4,4.2-0.2s1.7-1.6,2-2.9c0.2-0.7,0.2-1.3,0.1-1.9c-0.1-0.6-0.3-1.1-0.6-1.7
		c-0.3-0.5-0.7-1-1.3-1.4c-0.6-0.4-1.3-0.7-2.3-0.9C196.6,24.6,191.6,23.4,191.6,23.4z M228,32.5l14.2,7.6l-1.2,2.3l-11.7-6.3
		l-4.1,7.6l9.7,5.2l-1.3,2.4l-9.7-5.2l-4.5,8.5l11.6,6.2l-1.2,2.3l-14.1-7.5L228,32.5L228,32.5z M251.6,56.4c0.4,0.3,0.7,0.6,0.9,1
		c0.2,0.4,0.4,0.8,0.5,1.3c0.1,0.4,0.1,0.9,0,1.3c-0.1,0.4-0.2,0.8-0.5,1.1c-0.3,0.3-0.6,0.6-1,0.8c-0.4,0.2-0.8,0.3-1.2,0.3
		c-0.4,0-0.9,0-1.3-0.2c-0.4-0.1-0.9-0.3-1.3-0.7c-0.4-0.3-0.7-0.6-0.9-1c-0.2-0.4-0.4-0.8-0.5-1.2c-0.1-0.4-0.1-0.8,0-1.2
		c0.1-0.4,0.3-0.8,0.6-1.2c0.3-0.3,0.6-0.6,1-0.8c0.4-0.2,0.8-0.3,1.2-0.3c0.4,0,0.9,0,1.3,0.1C250.9,56,251.3,56.2,251.6,56.4
		L251.6,56.4z M274.4,66l8.1,8.8l-1.8,1.7l-2.7-3l-11,10.2c-1.3,1.2-2.4,2-3.5,2.6c-1.1,0.5-2.1,0.8-3.1,0.8s-1.9-0.2-2.7-0.6
		c-0.8-0.4-1.5-0.9-2.2-1.6c-1.7-1.8-2.4-4-2.1-6.5l3.1-0.2c0,0.1-0.1,0.2-0.2,0.4c-0.1,0.1-0.2,0.3-0.2,0.4l0,0.7
		c0,0.2,0,0.4,0,0.7c0.1,0.3,0.1,0.6,0.3,0.9c0.1,0.3,0.3,0.6,0.4,1s0.3,0.6,0.6,0.8c1,1,2,1.4,3.2,1.3c1.2-0.2,2.6-1.1,4.4-2.8
		l11-10.2l-3.4-3.7C272.7,67.7,274.4,66,274.4,66z M299,105.5l-3.1-0.3c0-0.1,0-0.3,0.2-0.4c0.2-0.1,0.2-0.2,0.3-0.3
		c0.4-0.9,0.6-1.8,0.6-2.8c0-1-0.4-2.1-1.1-3.3c-0.6-1.1-1.5-1.9-2.6-2.2c-1.1-0.4-2.1-0.3-3,0.2c-0.5,0.3-0.9,0.7-1.2,1.1
		c-0.3,0.4-0.5,0.9-0.6,1.5c-0.1,0.6-0.2,1.4-0.2,2.3c0,0.9,0.2,2.1,0.4,3.6c0.2,1.4,0.3,2.6,0.2,3.6c0,1-0.2,1.8-0.4,2.6
		c-0.3,0.7-0.6,1.4-1.1,1.9c-0.5,0.5-1.1,1-1.8,1.4c-0.8,0.4-1.6,0.8-2.6,0.9c-1,0.2-1.9,0.1-2.9-0.2c-1-0.3-1.9-0.8-2.9-1.5
		c-0.9-0.7-1.8-1.8-2.6-3.1c-1.7-2.9-2.1-5.9-1.2-8.8l3.5,0c0,0.2-0.1,0.3-0.3,0.4c-0.2,0.1-0.3,0.2-0.3,0.3c-0.4,1-0.5,2.1-0.5,3.3
		s0.5,2.5,1.3,3.8c0.4,0.7,0.9,1.2,1.4,1.7s1.1,0.8,1.8,1c0.6,0.2,1.3,0.3,1.9,0.2c0.7-0.1,1.3-0.3,1.9-0.6c0.5-0.3,0.8-0.6,1.1-1
		c0.3-0.4,0.5-0.8,0.6-1.4c0.1-0.6,0.1-1.3,0.1-2.1c-0.1-0.9-0.2-2-0.4-3.3c-0.2-1.5-0.3-2.7-0.3-3.8s0.1-2,0.3-2.7
		c0.2-0.8,0.5-1.4,1-1.9c0.4-0.5,1-1,1.6-1.4c0.8-0.5,1.7-0.7,2.6-0.8c0.9-0.1,1.9,0.1,2.8,0.4c0.9,0.3,1.8,0.8,2.5,1.5
		c0.8,0.7,1.5,1.5,2,2.5c0.7,1.2,1.1,2.6,1.3,3.9S299.4,104.2,299,105.5L299,105.5z"/>
</g>
<g>
	<path fill="none" stroke="#4C4C4C" stroke-width="2" stroke-miterlimit="10" d="M83.2,315.1h143"/>
	<path fill="#4C4C4C" d="M238.3,314.1c1,0.5,1,1.3,0,1.8l-13.3,6.7c-1,0.5-1.8,0-1.8-1.1v-12.6c0-1.1,0.8-1.6,1.8-1.1L238.3,314.1
		L238.3,314.1z"/>
	<path fill="none" stroke="#4C4C4C" stroke-width="2" stroke-miterlimit="10" d="M95.8,305.6l9.6,9.5"/>
	<path fill="none" stroke="#4C4C4C" stroke-width="2" stroke-miterlimit="10" d="M88.8,305.6l9.6,9.5"/>
	<path fill="none" stroke="#4C4C4C" stroke-width="2" stroke-miterlimit="10" d="M81.8,305.6l9.6,9.5"/>
	<path fill="none" stroke="#4C4C4C" stroke-width="2" stroke-miterlimit="10" d="M91.4,315.1l-9.6,9.5"/>
	<path fill="none" stroke="#4C4C4C" stroke-width="2" stroke-miterlimit="10" d="M98.4,315.1l-9.6,9.5"/>
	<path fill="none" stroke="#4C4C4C" stroke-width="2" stroke-miterlimit="10" d="M105.4,315.1l-9.6,9.5"/>
	<path fill="none" stroke="#4C4C4C" stroke-width="2" stroke-miterlimit="10" d="M102.8,305.6l9.6,9.5"/>
	<path fill="none" stroke="#4C4C4C" stroke-width="2" stroke-miterlimit="10" d="M112.4,315.1l-9.6,9.5"/>
</g>
</svg>
