<?xml version="1.0" encoding="utf-8"?>
<!-- Generator: Adobe Illustrator 18.0.0, SVG Export Plug-In . SVG Version: 6.00 Build 0)  -->
<!DOCTYPE svg PUBLIC "-//W3C//DTD SVG 1.1//EN" "http://www.w3.org/Graphics/SVG/1.1/DTD/svg11.dtd">
<svg version="1.1" id="Capa_1" xmlns="http://www.w3.org/2000/svg" xmlns:xlink="http://www.w3.org/1999/xlink" x="0px" y="0px"
	 viewBox="0 0 554.9 560" enable-background="new 0 0 554.9 560" xml:space="preserve">
<g>
	<path fill="#010101" d="M548.6,271c0-91.2-52.1-179.7-130.2-226.6c-62.5-39.1-140.7-49.5-211-31.3C100.6,40.5,16,136.8,5.6,246.2
		c-13.1,102.9,39,211,127.6,264.4c88.5,54.7,207,52.1,293-5.2C504.3,454.6,552.5,363.5,548.6,271z M292.1,509.3
		C168.4,521,48.6,416.8,44.7,291.8C35.5,191.5,101.9,91.3,197,58.7c132.8-53.4,296.9,45.6,311.3,188.8
		C529.1,375.1,422.3,505.4,292.1,509.3z"/>
	<path fill="#010101" d="M288,267.2c32.6-49.5,65.1-97.7,97.7-147.2c-61.2,48.2-119.8,97.7-179.7,147.2
		C233.4,268.5,260.7,268.5,288,267.2z"/>
	<path fill="#010101" d="M159.1,442.2C220.3,394,278.9,343,338.8,295c-27.3,0-54.7,0-82,0C224.3,344,191.7,392.7,159.1,442.2z"/>
</g>
</svg>
