<?xml version="1.0" encoding="utf-8"?>
<!-- Generator: Adobe Illustrator 18.0.0, SVG Export Plug-In . SVG Version: 6.00 Build 0)  -->
<!DOCTYPE svg PUBLIC "-//W3C//DTD SVG 1.1//EN" "http://www.w3.org/Graphics/SVG/1.1/DTD/svg11.dtd">
<svg version="1.1" id="Capa_1" xmlns:sketch="http://www.bohemiancoding.com/sketch/ns"
	 xmlns="http://www.w3.org/2000/svg" xmlns:xlink="http://www.w3.org/1999/xlink" x="0px" y="0px" viewBox="0 0 43.7 43"
	 enable-background="new 0 0 43.7 43" xml:space="preserve">
<title>logo full</title>
<description>Created with Sketch.</description>
<g id="Page-1" sketch:type="MSPage">
	<g id="logo" sketch:type="MSLayerGroup">
		<path id="Shape" sketch:type="MSShapeGroup" fill="#FFFFFF" d="M0,0h43v43H0V0L0,0z"/>
		<path id="Shape_1_" sketch:type="MSShapeGroup" fill="#010101" d="M16.2,1.2c5.4-1.4,11.4-0.6,16.2,2.4c6,3.6,10,10.4,10,17.4
			C42.7,28.1,39,35.1,33,39c-6.6,4.4-15.7,4.6-22.5,0.4C3.7,35.3-0.3,27,0.7,19.1C1.5,10.7,8,3.3,16.2,1.2L16.2,1.2z"/>
		<path id="Shape_2_" sketch:type="MSShapeGroup" fill="#FFFFFF" d="M15.4,4.7c10.2-4.1,22.8,3.5,23.9,14.5
			C40.9,29,32.7,39,22.7,39.3c-9.5,0.9-18.7-7.1-19-16.7C3,14.9,8.1,7.2,15.4,4.7L15.4,4.7z"/>
		<path id="Shape_3_" sketch:type="MSShapeGroup" fill="#010101" d="M16.4,20.4c4.6-3.8,9.1-7.6,13.8-11.3c-2.5,3.8-5,7.5-7.5,11.3
			C20.6,20.5,18.5,20.5,16.4,20.4L16.4,20.4z"/>
		<path id="Shape_4_" sketch:type="MSShapeGroup" fill="#010101" d="M20.3,22.5c2.1,0,4.2,0,6.3,0c-4.6,3.7-9.1,7.6-13.8,11.3
			C15.3,30,17.8,26.3,20.3,22.5L20.3,22.5z"/>
	</g>
</g>
</svg>
