<?xml version="1.0" encoding="utf-8"?>
<!-- Generator: Adobe Illustrator 18.0.0, SVG Export Plug-In . SVG Version: 6.00 Build 0)  -->
<!DOCTYPE svg PUBLIC "-//W3C//DTD SVG 1.1//EN" "http://www.w3.org/Graphics/SVG/1.1/DTD/svg11.dtd">
<svg version="1.1" id="Capa_1" xmlns="http://www.w3.org/2000/svg" xmlns:xlink="http://www.w3.org/1999/xlink" x="0px" y="0px"
	 viewBox="0 0 223 239.9" enable-background="new 0 0 223 239.9" xml:space="preserve">
<g>
	<g>
		<defs>
			<path id="SVGID_1_" d="M387.4-281.3v-0.3l5.6-28.2c0,0-12.5-28.8-54.5-25.4c-42,3.4-47.3,13.2-54.2,24.8l4.1,18.5l-7.8,5
				c0,0-2.8-8.5-7.2-8.8c0,0,6.6-9.4,1.9-16c-4.7-6.6-29.8-6-39.5,27.3c0,0-1.3-10-5.3-10s-19.1,5.3-15,21
				c4.1,15.7,18.2,20.4,22.9,22.3c0,0,2.2,2.8,1.3,6.6c-0.5,2-11.9,37.1-2.4,69.6c7.1,24.3,29.8,45.4,29.8,45.4
				c17.3,16.5,40.7,26.7,66.4,26.7c53.4,0,96.7-43.7,96.7-97.5C430-234.1,413.1-263.7,387.4-281.3L387.4-281.3z"/>
		</defs>
		<clipPath id="SVGID_2_">
			<use xlink:href="#SVGID_1_"  overflow="visible"/>
		</clipPath>
		<g clip-path="url(#SVGID_2_)">
			<ellipse fill="#D1D1D1" cx="339" cy="33.1" rx="89.3" ry="7.4"/>
			<g>
				<g>
					<path fill="#050505" d="M258.5-76.5l76.6,98.7c0,0,3,1.1,4.3-0.4v-98.3H258.5z"/>
					<path fill="#050505" d="M335.1,22.2l-15.4,10.1v2.1h19.9l-0.2-12.6C339.3,21.8,337.2,19.4,335.1,22.2L335.1,22.2z"/>
				</g>
				<g>
					<path fill="#050505" d="M419.6-76.5L343,22.2c0,0-3,1.1-4.3-0.4v-98.3H419.6z"/>
					<path fill="#050505" d="M343,22.2l15.4,10.1v2.1h-19.9l0.2-12.6C338.7,21.8,340.9,19.4,343,22.2z"/>
				</g>
				<path fill="#191919" d="M339,21.5c0.4-5.3,0.7-12.2,0.7-19.7s-0.3-14.3-0.7-19.7c-0.4,5.3-0.7,12.2-0.7,19.7
					S338.6,16.1,339,21.5z"/>
			</g>
		</g>
	</g>
</g>
<g>
	<path fill="#020202" d="M118.6,235c-54.7,0-99.2-44.9-99.2-100c0-55.2,44.5-100,99.2-100s99.2,44.9,99.2,100
		C217.8,190.1,173.3,235,118.6,235z M118.6,39.9c-51.9,0-94.2,42.6-94.2,95c0,52.4,42.3,95,94.2,95c51.9,0,94.2-42.6,94.2-95
		C212.8,82.6,170.6,39.9,118.6,39.9z"/>
	<g>
		<g>
			<defs>
				<path id="SVGID_3_" d="M172.8,54.1v-0.3l5.6-28.2c0,0-12.5-28.8-54.5-25.4C81.9,3.7,76.5,13.4,69.7,25l4.1,18.5l-7.8,5
					c0,0-2.8-8.5-7.2-8.8c0,0,6.6-9.4,1.9-16s-29.8-6-39.5,27.3c0,0-1.3-10-5.3-10c-4.1,0-19.1,5.3-15,21s18.2,20.4,22.9,22.3
					c0,0,2.2,2.8,1.3,6.6c-0.5,2-11.9,37.1-2.4,69.6c7.1,24.3,29.8,45.4,29.8,45.4c17.3,16.5,40.7,26.7,66.4,26.7
					c53.4,0,96.7-43.7,96.7-97.5C215.3,101.3,198.5,71.7,172.8,54.1z"/>
			</defs>
			<clipPath id="SVGID_4_">
				<use xlink:href="#SVGID_3_"  overflow="visible"/>
			</clipPath>
			<g clip-path="url(#SVGID_4_)">
				<path fill="#050505" d="M152.7,170.5c0,0,70.3,11.3,78,109.6c0,0-13.1,8.3-26.8,8.9C204,289,205.2,213.4,152.7,170.5
					L152.7,170.5z"/>
				<path fill="#DD002A" d="M193.8,232c0.6,1.6,1.1,3.2,1.6,4.7c4.6-0.5,15-1.9,24.1-6.1c-0.6-1.5-1.3-3-2-4.5
					C214.2,227.7,206.7,230.5,193.8,232L193.8,232z"/>
				<g>
					<g>
						<circle fill="#F4CF8C" cx="80.3" cy="96.1" r="15.1"/>
						<circle fill="#F4CF8C" cx="80.3" cy="96.1" r="15.1"/>
						<path fill="#F4CF8C" d="M65.2,96.1c0,0.5,0,0.9,0.1,1.4c1.1-0.5,2.2-1.1,3.4-1.8c7.1-4.6,7.4-10,5.8-13.5
							C69,84.5,65.2,89.8,65.2,96.1z"/>
						<circle fill="#F4CF8C" cx="72.5" cy="96.1" r="7.3"/>
						<g>
							<path fill="#D8AF6F" d="M72.5,88.8c-0.3,0-0.6,0-0.9,0.1c2.8,0.4,5,3.5,5,7.2s-2.2,6.8-5,7.2c0.3,0,0.6,0.1,0.9,0.1
								c4,0,7.3-3.3,7.3-7.3S76.5,88.8,72.5,88.8z"/>
							<path fill="#F4CF8C" d="M71.6,88.9c-0.2,0-0.5-0.1-0.7-0.1c-3.2,0-5.7,3.3-5.7,7.3C65.2,92.4,68,89.3,71.6,88.9z"/>
							<path fill="#F4CF8C" d="M65.2,96.1c0,4,2.6,7.3,5.7,7.3c0.2,0,0.5,0,0.7-0.1C68,102.9,65.2,99.8,65.2,96.1z"/>
						</g>
					</g>
					<g>
						<circle fill="#F4CF8C" cx="168.5" cy="96.1" r="15.1"/>
						<circle fill="#F4CF8C" cx="168.5" cy="96.1" r="15.1"/>
						<circle fill="#F4CF8C" cx="176.2" cy="96.1" r="7.3"/>
						<g>
							<path fill="#D8AF6F" d="M172.1,96.1c0-3.7,2.2-6.8,5-7.2c-0.3,0-0.6-0.1-0.9-0.1c-4,0-7.3,3.3-7.3,7.3s3.3,7.3,7.3,7.3
								c0.3,0,0.6,0,0.9-0.1C174.3,102.9,172.1,99.8,172.1,96.1z"/>
							<path fill="#F4CF8C" d="M183.5,96.1c0-4-2.6-7.3-5.7-7.3c-0.2,0-0.5,0-0.7,0.1C180.7,89.3,183.5,92.4,183.5,96.1L183.5,96.1z
								"/>
							<path fill="#F4CF8C" d="M177.1,103.3c0.2,0,0.5,0.1,0.7,0.1c3.2,0,5.7-3.3,5.7-7.3C183.5,99.8,180.7,102.9,177.1,103.3z"/>
						</g>
					</g>
				</g>
				<g>
					<path fill="#F4CF8C" d="M38.2,105.7c0,0,14.4,1.9,12.5-12.5c0,0,5,7.8,16.2,0.6c11.2-7.2,5.3-16.6,2.2-16.9
						c-3.1-0.3-7.5-3.8-18.4,7.5l-6.2-14.4l7.2-9.4c0,0,1,13.5,11.4,9.7c10.4-3.8,2.6-26.9-6.7-26.9s-16.9,9.7-16.9,9.7
						s3.1-8.7,16.9-15.9c0,0,5.3-3.1,2.2-10.9S25.7,24.2,21,62.3c0,0-5.3-5-4.1-12.8S1.6,43.9,4.7,60.7
						c3.1,16.9,19.4,20.3,19.4,20.3s5.5,8.9,1.6,19.1C25.7,100.1,31.9,107.9,38.2,105.7z"/>
					<g>
						<path fill="#F4CF8C" d="M66.9,93.9c11.2-7.2,5.3-16.6,2.2-16.9c-1.9-0.2-4.3-1.6-8.4,0l3.7,7.6c0,0-0.8,10.8-12.9,8.1
							c0,0-0.1,0.4-0.4,1.1C52.4,95.4,57.5,99.9,66.9,93.9z"/>
						<path fill="#F4CF8C" d="M50.8,94.3c-1.9,3.4-8.4,9.8-24,1.8c-0.3,1.4-0.6,2.7-1.1,4c0,0,6.2,7.8,12.5,5.6
							C38.2,105.7,51.8,107.5,50.8,94.3z"/>
					</g>
					<path fill="#F4CF8C" d="M51.6,60.7c0,0,1,13.5,11.4,9.7c4.3-1.6,5.5-6.3,4.8-11.5c-2.6,2.7-10.7,9.5-13.8-5L39.6,70.7
						l-11.4,6.6l14.1-3.5l8.2,10.7l-6.2-14.4C44.4,70.1,51.6,60.7,51.6,60.7z"/>
					<path fill="#F4CF8C" d="M41.8,49.2c2.3-3.2,6.7-7.8,14.5-11.9c0,0,5.3-3.1,2.2-10.9c-0.1-0.1-0.1-0.3-0.2-0.4
						c-0.7,2.4-2.2,5.2-5,7.2c-5.8,4-26.5,18.4-19.9,40.1C33.3,73.2,30.7,59.8,41.8,49.2z"/>
					<path fill="#F4CF8C" d="M20.7,62c-1.1-1.2-4.8-5.8-3.8-12.5c0.5-3.1-1.8-4.6-4.5-4.3c-0.5,8.4,0.7,25.4,17.2,30.3
						C29.5,75.5,23.3,72.5,20.7,62z"/>
				</g>
				<path fill="#050505" d="M25.7,100.1l12.5,5.6c0,0-11.2,61.9,47.5,64.4c0,0,0.4,39.8-35.8,39.2C49.8,209.3,1.9,171.2,25.7,100.1
					L25.7,100.1z"/>
				<path fill="#DD002A" d="M40.6,139.4c-0.2-0.6-0.4-1.1-0.5-1.7l0,0c-2.8,1.4-10.2,4.7-21,4.6c0,1.4,0.1,2.7,0.2,4.1
					c5.4,0,14.3-0.7,22-4.9l0,0c-0.2-0.6-0.4-1.2-0.6-1.8C40.7,139.6,40.6,139.4,40.6,139.4z"/>
				<path fill="#DD002A" d="M44.6,148.3c-0.3-0.5-0.6-1-0.9-1.6l0,0c-3.2,1.5-12.1,5.1-23.8,5.2c0.2,1.5,0.4,3,0.7,4.5
					c6.4,0,15.8-1.1,25-6.4l0,0C45.2,149.4,44.9,148.9,44.6,148.3L44.6,148.3L44.6,148.3z"/>
				<path fill="#DD002A" d="M25.7,100.1c-3.4,9.3-4.8,17.8-5.9,25.8c5.9,1.1,11.9,1.3,17.8-2.5c-0.7-10,0.6-17.7,0.6-17.7
					L25.7,100.1z"/>
				<path fill="#050505" d="M159.6,168.5H89.1c-75,33-57.6,157.2-57.6,157.2h93.3v-56.8l5.2,56.8h87.2
					C217.2,325.8,234.6,201.5,159.6,168.5z"/>
				<path fill="#930023" d="M222.8,284.2c-1.1-26.7-6.4-61.1-24.4-86.8c-21.5-23-45.7-26.9-45.7-26.9C205.2,213.4,204,289,204,289
					C211,288.7,217.8,286.4,222.8,284.2z"/>
				<path fill="#DD002A" d="M34.6,246c-0.2,1.1-0.5,2.3-0.7,3.4c20.7-7.6,53.5-12.6,90.5-12.6c36.9,0,69.7,4.9,90.5,12.6
					c-0.2-1.1-0.5-2.3-0.7-3.4c-20.8-7.5-53.3-12.3-89.8-12.3S55.4,238.5,34.6,246z"/>
				<path fill="#DD002A" d="M38.7,230.3c-0.3,1-0.6,2.1-0.9,3.1c20.8-6.9,51.9-11.2,86.6-11.2s65.8,4.4,86.6,11.2
					c-0.3-1-0.6-2.1-0.9-3.1c-20.8-6.7-51.5-10.9-85.7-10.9C90.2,219.4,59.5,223.6,38.7,230.3L38.7,230.3z"/>
				<path fill="#DD002A" d="M67.9,182.2c-16.1,20.7-14.3,45.9-14.3,45.9l4.4-2c-1.4-22,8.7-39.4,15-48
					C71.1,179.4,69.5,180.8,67.9,182.2z"/>
				<path fill="#DD002A" d="M175.9,178.1c6.3,8.6,16.3,26.1,15,48l4.4,2c0,0,1.7-25.2-14.3-45.9
					C179.3,180.8,177.6,179.4,175.9,178.1L175.9,178.1z"/>
				<path fill="#F4CF8C" d="M163.3,166c0,0-15,13.7-39.6,13.7c-29.3,0-38.4-13.7-38.4-13.7l-5.2-95.5h88.4L163.3,166L163.3,166z"/>
				<path fill="#F4CF8C" d="M163.3,166c0,0-15,13.7-39.6,13.7c-29.3,0-38.4-13.7-38.4-13.7l-5.2-95.5h88.4L163.3,166L163.3,166z"/>
				<path fill="#F4CF8C" d="M163.3,166c0,0-15,13.7-39.6,13.7c-29.3,0-38.4-13.7-38.4-13.7l-5.2-95.5h88.4L163.3,166L163.3,166z"/>
				<path fill="#B27D30" d="M135.6,86.8l2.2-2.8c0,0,7.9-0.4,20.1,6.2c0,0-8.8-10.9-22.1-7.2l0.4-2.4l-3.8,6.2c0,0,1.4,8.2-0.1,14.2
					h-15.9c-1.5-6-0.1-14.2-0.1-14.2l-3.8-6.2l0.4,2.4c-13.3-3.7-22.1,7.2-22.1,7.2C103,83.6,111,84,111,84l2.2,2.8
					c-4.3,8.5-14.3,9.2-14.3,9.2c10.5,1.1,14.4-5.5,14.4-5.5c-0.6,5.2,0.5,12,0.5,12l10.6,7.4l0.1-0.1l0.1,0.1l10.6-7.4
					c0,0,1.1-6.8,0.5-12c0,0,3.9,6.6,14.4,5.5C149.9,96,139.8,95.3,135.6,86.8L135.6,86.8z"/>
				<ellipse fill="#050505" cx="124.4" cy="117.7" rx="14.5" ry="8.7"/>
				<path fill="#DD002A" d="M124.4,126.8c3.3,0,6.3-1.1,8.7-2.2c-1.7-1.8-5-3.1-8.7-3.1c-3.8,0-7,1.2-8.7,3.1
					C118.1,125.7,121.1,126.8,124.4,126.8z"/>
				<path fill="#FFFFFF" d="M124.4,109c-8,0-14.5,3.9-14.5,8.7c0,0.3,0,0.5,0.1,0.7h28.9c0-0.2,0.1-0.5,0.1-0.7
					C138.9,112.9,132.4,109,124.4,109z"/>
				<path fill="#C98C28" d="M124.4,132c-2.9,0-5.7-0.5-8-1.4c1.8,2.4,4.7,3.9,8,3.9s6.1-1.5,8-3.9C130,131.5,127.3,132,124.4,132z"
					/>
				<path fill="#C98C28" d="M124.4,157.9c-5,0-9.7-0.9-13.6-2.4c3.1,4.1,8,6.7,13.6,6.7s10.5-2.6,13.6-6.7
					C134.1,157,129.4,157.9,124.4,157.9z"/>
				<polygon fill="#CEA063" points="167.7,86.2 168.5,70.5 80.2,70.5 81,86.2 				"/>
				<path fill="#050505" d="M168.7,70.5l7.8-44.8c0,0-11.7-22.9-51.9-22.9c-48.8,0-52.4,22.9-52.4,22.9L80,70.5H168.7z"/>
				<polygon fill="#DD002A" points="80,70.5 168.7,70.5 172.1,51.3 76.7,51.3 				"/>
				<polygon fill="#050505" points="66.6,81.2 63,70.5 185.7,70.5 182.1,81.2 				"/>
				<g>
					<circle fill="#050505" cx="124.4" cy="57.4" r="14.3"/>
					<path fill="#DD002A" d="M124.4,69.9c-6.9,0-12.5-5.6-12.5-12.5c0-6.9,5.6-12.5,12.5-12.5c6.9,0,12.5,5.6,12.5,12.5
						C136.9,64.3,131.3,69.9,124.4,69.9z M124.4,46.5c-6,0-10.9,4.9-10.9,10.9c0,6,4.9,10.9,10.9,10.9c6,0,10.9-4.9,10.9-10.9
						C135.3,51.4,130.4,46.5,124.4,46.5z"/>
					<path fill="#DD002A" d="M124.4,66.5c-5,0-9.1-4.1-9.1-9c0-5,4.1-9.1,9.1-9.1c5,0,9.1,4.1,9.1,9.1
						C133.4,62.4,129.4,66.5,124.4,66.5z M124.4,49.5c-4.3,0-7.9,3.5-7.9,7.9c0,4.3,3.5,7.9,7.9,7.9s7.9-3.5,7.9-7.9
						C132.2,53.1,128.7,49.5,124.4,49.5z"/>
					<polygon fill="#DD002A" points="130.7,51.3 127.6,55.3 132.5,54 128.2,56.6 133.2,57.2 128.2,58 132.7,60.4 127.7,59.4 
						131.1,63.2 126.8,60.4 128.5,65.2 125.5,61.1 125.4,66.2 124.1,61.3 122.2,66 122.7,60.9 119.2,64.6 121.6,60.1 117,62.3 
						120.8,58.9 115.7,59.3 120.5,57.5 115.6,56 120.7,56.1 116.7,53 121.4,54.9 118.8,50.5 122.5,54 121.7,49 123.9,53.5 
						124.9,48.6 125.3,53.6 128.1,49.4 126.6,54.2 					"/>
					<path fill="#050505" d="M127.1,57.4c0,1.5-1.2,2.7-2.7,2.7c-1.5,0-2.7-1.2-2.7-2.7c0-1.5,1.2-2.7,2.7-2.7
						C125.9,54.7,127.1,55.9,127.1,57.4z"/>
				</g>
				<path fill="#DD002A" d="M123.7,179.6c-29.3,0-38.3-13.6-38.4-13.7l1.1,19.4c0,0,8.8,13.3,37.3,13.3c24,0,38.6-13.3,38.6-13.3
					l1.1-19.4C163.3,166,148.3,179.6,123.7,179.6z"/>
				<path fill="#050505" d="M124.4,198.4c0.7-2.5,1.1-5.8,1.1-9.3c0-3.5-0.4-6.8-1.1-9.3c-0.7,2.5-1.1,5.8-1.1,9.3
					C123.2,192.6,123.6,195.8,124.4,198.4L124.4,198.4z"/>
				<circle fill="#930023" cx="131.3" cy="189.7" r="2.7"/>
				<circle fill="#FFFFFF" cx="130.7" cy="189.1" r="2.7"/>
				<path fill="#FFB000" d="M133.8,215.8h-19c-3,0-5.5,2.4-5.5,5.5v13.5c0,3,2.4,5.5,5.5,5.5h19c3,0,5.5-2.4,5.5-5.5v-13.5
					C139.3,218.2,136.9,215.8,133.8,215.8z M132.4,223.3v9.3c0,0.6-0.4,1-1,1h-14c-0.6,0-1-0.4-1-1v-9.3c0-0.6,0.4-1,1-1h14
					C131.9,222.3,132.4,222.8,132.4,223.3z"/>
				<polygon fill="#C98C28" points="124.3,109.9 124.4,109.9 124.4,109.9 134.9,102.5 113.8,102.5 				"/>
				<g>
					<path fill="#4F1907" d="M124.4,108.3c0,0-8.8-10.5-29.6-5.4c-20.7,5.2-31.4,30.9-31.4,30.9s11.3,8.4,29,6.2
						C110.1,137.7,124.5,118.8,124.4,108.3z"/>
					<path fill="#4F1907" d="M124.4,108.3c0,0,8.8-10.5,29.6-5.4c20.7,5.2,31.4,30.9,31.4,30.9s-11.3,8.4-29,6.2
						C138.7,137.7,124.3,118.8,124.4,108.3z"/>
				</g>
				<polygon fill="#DD002A" points="169.2,198.5 166,202.5 162.7,198.5 164.6,198.5 164.6,196.7 157.6,196.7 157.6,198.5 
					160.4,198.5 165,204.2 165,207.8 162.3,207.8 162.3,209.6 169.6,209.6 169.6,207.8 166.9,207.8 166.9,204.2 171.6,198.5 
					174.3,198.5 174.3,196.7 167.4,196.7 167.4,198.5 				"/>
			</g>
		</g>
	</g>
</g>
</svg>
